<?xml version="1.0" standalone="no"?>
<!DOCTYPE svg PUBLIC "-//W3C//DTD SVG 20010904//EN"
 "http://www.w3.org/TR/2001/REC-SVG-20010904/DTD/svg10.dtd">
<svg version="1.0" xmlns="http://www.w3.org/2000/svg"
 width="260.000000pt" height="260.000000pt" viewBox="0 0 260.000000 260.000000"
 preserveAspectRatio="xMidYMid meet">
<metadata>
Created by potrace 1.11, written by Peter Selinger 2001-2013
</metadata>
<g transform="translate(0.000000,260.000000) scale(0.100000,-0.100000)"
fill="#000000" stroke="none">
<path d="M944 2361 c-27 -10 -63 -25 -80 -34 -38 -20 -135 -111 -109 -102 88
31 225 36 278 10 36 -17 137 -117 137 -136 0 -6 4 -8 9 -5 5 3 11 0 14 -8 7
-17 -18 -157 -32 -185 -14 -25 -31 -19 -31 10 0 27 -71 147 -107 180 -55 52
-94 69 -159 69 -51 0 -68 -5 -107 -31 -44 -29 -127 -138 -127 -166 0 -6 -4
-13 -10 -15 -12 -4 -30 -127 -20 -133 4 -3 10 17 12 44 9 95 83 199 178 250
l45 24 -42 -39 c-23 -21 -54 -49 -70 -60 -38 -29 -75 -106 -81 -167 l-5 -50
94 7 c52 4 100 7 107 7 6 0 47 0 90 -1 l77 -1 -25 -20 c-14 -10 -78 -36 -142
-56 -65 -20 -118 -41 -118 -46 0 -5 8 -6 18 -2 35 14 269 18 353 6 156 -23
246 -53 404 -134 205 -105 372 -239 483 -387 14 -19 31 -39 36 -45 50 -47 170
-264 180 -327 7 -41 -13 -101 -43 -129 -26 -24 -126 -74 -202 -100 -445 -153
-570 -185 -744 -194 -195 -9 -579 46 -810 117 -38 12 -73 21 -77 20 -5 -1 -8
2 -8 7 0 5 -10 11 -23 15 -32 8 -83 58 -101 98 -8 18 -21 42 -29 53 -15 19
-16 19 -12 -10 2 -16 4 -34 4 -38 1 -5 24 -33 52 -63 29 -30 46 -54 38 -54 -8
0 -52 7 -99 15 -47 8 -97 15 -112 15 l-28 0 0 -193 c0 -179 2 -195 19 -211 19
-17 22 -15 94 38 41 31 101 67 133 80 56 21 60 22 77 5 18 -17 18 -18 -15 -34
-18 -10 -90 -53 -159 -96 -70 -44 -131 -79 -138 -79 -6 0 -11 -17 -11 -40 l0
-40 535 0 c294 0 535 2 535 5 0 2 -23 14 -52 27 -29 12 -72 38 -97 57 -44 33
-150 86 -221 110 -19 6 -57 32 -85 57 l-50 45 40 -6 c22 -4 54 -14 70 -24 17
-10 42 -21 56 -24 14 -4 45 -25 69 -48 37 -33 46 -37 49 -23 2 10 -11 29 -33
48 -40 34 -50 72 -25 89 13 8 31 5 75 -15 33 -14 83 -29 113 -32 64 -8 134
-43 188 -95 20 -19 13 -70 -14 -107 -14 -18 -21 -38 -17 -48 5 -14 38 -16 308
-16 166 0 306 4 311 9 6 5 54 16 108 25 117 20 246 59 304 93 167 97 275 412
218 633 -14 55 -14 67 7 187 18 102 23 167 23 318 0 187 -1 192 -37 336 -71
274 -170 468 -294 578 -118 104 -268 153 -397 132 -38 -6 -96 -20 -128 -31
-78 -27 -106 -25 -197 9 -236 91 -322 105 -418 72z m885 -205 c24 -9 52 -16
62 -16 11 0 19 -4 19 -8 0 -5 18 -18 40 -31 22 -12 40 -25 40 -29 0 -4 12 -20
28 -37 15 -16 51 -77 79 -135 30 -60 53 -95 53 -82 0 41 19 23 26 -25 3 -27
10 -52 14 -58 19 -24 -9 -144 -42 -182 -8 -10 -18 -26 -22 -37 -4 -11 -12 -16
-21 -12 -9 3 -15 0 -15 -9 0 -12 -12 -20 -22 -14 -2 1 -23 -8 -47 -21 -88 -44
-165 -25 -336 84 -81 52 -180 112 -246 149 -34 19 -48 34 -52 54 -7 36 0 46
27 38 54 -15 53 -16 54 32 1 26 6 51 12 57 5 5 10 19 10 31 0 11 9 27 20 35
11 8 20 18 20 23 0 15 35 45 73 60 20 9 37 12 37 8 0 -5 -8 -12 -17 -15 -36
-13 -58 -31 -60 -50 -1 -13 2 -15 10 -7 6 6 17 11 25 11 7 0 -3 -15 -22 -33
-38 -36 -86 -128 -86 -164 0 -16 6 -23 20 -23 11 0 46 -9 78 -20 120 -43 262
-71 325 -64 l59 7 -7 46 c-3 25 -17 69 -30 97 -13 30 -19 57 -15 64 24 39 70
-98 70 -209 0 -54 2 -62 18 -59 15 3 17 15 15 88 -3 179 -85 320 -212 365 -51
18 -142 19 -188 2 -55 -21 -121 -74 -155 -126 -18 -28 -40 -51 -48 -51 -16 0
-40 -43 -40 -72 0 -20 -21 -23 -51 -8 -31 17 -25 73 17 142 39 64 84 118 84
100 0 -6 -6 -17 -13 -24 -26 -28 -34 -62 -22 -92 l12 -29 7 39 c16 88 106 183
203 215 58 19 151 17 212 -5z m-883 -32 c38 -18 70 -50 38 -37 -10 4 -30 13
-44 20 -14 7 -35 13 -47 13 -12 0 -25 5 -28 10 -10 16 43 12 81 -6z m-6 -146
c0 -20 -17 -4 -33 30 l-17 37 25 -30 c14 -16 25 -33 25 -37z m1147 20 c-3 -8
-6 -5 -6 6 -1 11 2 17 5 13 3 -3 4 -12 1 -19z m-1337 -25 c0 -3 -9 -16 -20
-30 -14 -18 -21 -21 -24 -12 -9 30 -2 47 21 47 13 0 23 -3 23 -5z m70 -13 c0
-5 -2 -10 -4 -10 -3 0 -8 5 -11 10 -3 6 -1 10 4 10 6 0 11 -4 11 -10z m1320
-49 c0 -21 -16 -2 -25 29 -7 24 -7 24 9 5 8 -11 16 -27 16 -34z m20 -42 c0 -5
-4 -9 -10 -9 -5 0 -10 7 -10 16 0 8 5 12 10 9 6 -3 10 -10 10 -16z m-520 1 c0
-5 -5 -10 -11 -10 -5 0 -7 5 -4 10 3 6 8 10 11 10 2 0 4 -4 4 -10z m-42 -42
c-6 -18 -28 -21 -28 -4 0 9 7 16 16 16 9 0 14 -5 12 -12z m-1123 -1403 c70
-18 95 -30 112 -52 30 -37 29 -43 -9 -44 -57 -2 -70 2 -121 37 -54 37 -69 42
-61 19 7 -17 -11 -21 -22 -4 -3 6 -17 8 -31 4 -21 -5 -24 -3 -19 10 3 9 6 25
6 36 0 26 33 25 145 -6z"/>
<path d="M552 1853 c-23 -76 -44 -154 -47 -173 -4 -19 -9 -43 -12 -54 -4 -16
4 -13 58 15 35 18 66 34 68 36 11 8 -18 24 -47 26 -36 2 -35 0 -22 47 16 56
51 232 47 236 -2 3 -22 -58 -45 -133z"/>
<path d="M635 1475 c-184 -32 -295 -90 -348 -184 -27 -48 -30 -62 -28 -120 2
-36 4 -95 4 -130 1 -35 4 -55 8 -45 6 17 8 16 17 -7 8 -20 24 -31 62 -44 51
-17 52 -17 66 4 10 13 26 21 47 21 18 0 41 1 52 1 58 1 193 -10 215 -19 14 -5
42 -7 63 -4 24 3 59 -3 96 -17 32 -12 65 -19 73 -16 25 10 161 -23 182 -44 15
-15 23 -17 36 -8 29 17 157 -10 187 -39 20 -20 27 -22 42 -12 35 21 211 -22
211 -52 0 -6 31 -10 69 -10 37 0 90 -4 117 -9 89 -17 244 -31 269 -25 30 7 33
39 10 103 -22 62 -70 126 -170 226 -116 117 -148 144 -237 201 -116 75 -348
174 -407 174 -10 0 -21 3 -24 6 -4 4 -30 9 -59 11 -29 2 -65 10 -81 18 -15 7
-58 14 -95 14 -37 0 -91 5 -121 11 -68 13 -166 11 -256 -5z m365 -45 c25 -5
59 -10 75 -10 47 0 99 -18 125 -42 17 -16 39 -24 75 -26 52 -3 142 -40 165
-67 11 -13 10 -15 -2 -10 -10 4 -17 -1 -20 -12 -4 -14 1 -18 24 -19 21 -1 28
3 24 13 -8 19 34 9 104 -26 51 -25 55 -29 54 -61 -1 -18 7 -52 17 -74 11 -25
19 -33 19 -22 0 11 3 17 6 14 3 -4 21 0 39 8 49 20 70 8 71 -43 0 -27 12 -64
34 -104 34 -64 31 -78 -13 -79 -52 0 -141 85 -153 146 -6 34 -8 36 -15 16 -11
-29 -47 -29 -107 2 -56 28 -69 42 -74 76 -3 22 -7 25 -38 22 -44 -4 -122 28
-151 62 -21 24 -23 24 -46 9 -21 -14 -32 -15 -72 -4 -25 6 -66 26 -90 43 -25
18 -41 26 -36 19 11 -19 -13 -31 -67 -31 -37 0 -53 5 -70 22 -19 19 -32 22
-73 20 -45 -3 -53 0 -80 27 -17 17 -36 31 -43 31 -21 0 -25 -27 -7 -54 9 -14
14 -30 10 -37 -4 -6 -2 -15 6 -20 10 -6 8 -13 -11 -29 -19 -16 -35 -21 -63
-18 -34 3 -38 1 -33 -16 6 -24 -21 -79 -37 -73 -115 46 -119 52 -91 143 13 39
27 62 45 73 14 9 38 30 53 48 20 24 38 34 74 39 26 4 56 13 67 20 11 8 45 14
80 14 33 0 78 7 100 14 22 8 49 13 60 10 11 -2 40 -8 65 -14z"/>
<path d="M710 1362 c0 -5 9 -17 20 -27 16 -14 20 -15 20 -4 0 16 -19 39 -32
39 -4 0 -8 -4 -8 -8z"/>
<path d="M477 1178 c-21 -11 -22 -44 -1 -52 26 -10 35 -7 32 12 -1 9 1 22 5
28 9 16 -15 24 -36 12z"/>
<path d="M1687 961 c4 -3 10 -10 14 -14 3 -4 11 -2 18 6 9 12 7 15 -14 15 -14
0 -22 -3 -18 -7z"/>
</g>
</svg>
